<?xml version="1.0" standalone="no"?>
<!DOCTYPE svg PUBLIC "-//W3C//DTD SVG 20010904//EN"
 "http://www.w3.org/TR/2001/REC-SVG-20010904/DTD/svg10.dtd">
<svg version="1.0" xmlns="http://www.w3.org/2000/svg"
 width="225.000000pt" height="225.000000pt" viewBox="0 0 225.000000 225.000000"
 preserveAspectRatio="xMidYMid meet">

<g transform="translate(0.000000,225.000000) scale(0.100000,-0.100000)"
fill="#808080" stroke="none">
<path d="M1293 2174 l-93 -65 0 -905 c0 -722 3 -904 13 -898 6 5 136 110 287
234 l274 225 -187 3 -187 2 0 735 c0 404 -3 735 -7 735 -5 -1 -50 -30 -100
-66z"/>
<path d="M748 1742 l-277 -227 184 -3 185 -2 0 -750 c0 -413 2 -750 5 -750 3
0 48 34 100 76 l95 76 0 904 c0 497 -3 904 -7 903 -5 0 -133 -102 -285 -227z"/>
</g>
</svg>
