<?xml version="1.0" standalone="no"?>
<!DOCTYPE svg PUBLIC "-//W3C//DTD SVG 20010904//EN"
 "http://www.w3.org/TR/2001/REC-SVG-20010904/DTD/svg10.dtd">
<svg version="1.0" xmlns="http://www.w3.org/2000/svg"
 width="225.000000pt" height="225.000000pt" viewBox="0 0 225.000000 225.000000"
 preserveAspectRatio="xMidYMid meet">

<g transform="translate(0.000000,225.000000) scale(0.100000,-0.100000)"
fill="#808080" stroke="none">
<path d="M0 2234 c0 -14 3 -14 15 -4 8 7 15 14 15 16 0 2 -7 4 -15 4 -8 0 -15
-7 -15 -16z"/>
<path d="M2220 2246 c0 -2 7 -9 15 -16 12 -10 15 -10 15 4 0 9 -7 16 -15 16
-8 0 -15 -2 -15 -4z"/>
<path d="M350 1751 c-6 -13 -10 -149 -10 -375 l0 -355 33 -24 c60 -45 128 -78
150 -75 22 3 22 5 27 228 3 124 9 231 13 238 16 24 55 11 187 -65 l134 -76 43
23 c23 12 40 27 36 33 -3 6 -1 7 5 3 7 -4 51 16 98 43 92 55 127 62 144 32 5
-11 10 -71 10 -134 l0 -114 -165 -94 -165 -94 0 -121 c0 -85 4 -125 13 -132 6
-5 104 -62 216 -126 l203 -117 257 146 c141 81 262 152 269 159 11 11 15 165
12 483 0 42 -36 38 -121 -13 l-79 -48 -1 -110 c-1 -195 10 -177 -164 -278 -83
-47 -159 -87 -170 -87 -30 -1 -172 85 -180 109 -10 30 4 42 128 112 62 35 122
73 135 85 l22 22 0 359 c0 368 -1 382 -40 382 -8 0 -52 -23 -98 -50 -46 -28
-85 -50 -87 -50 -2 0 -28 -14 -57 -32 -154 -91 -245 -140 -263 -140 -11 0 -60
23 -110 52 -261 153 -382 220 -397 220 -10 0 -22 -9 -28 -19z"/>
<path d="M1754 1732 c-98 -60 -94 -53 -94 -156 0 -90 8 -116 36 -116 7 0 45
19 86 43 l73 44 5 89 c6 94 -3 134 -29 134 -9 -1 -43 -17 -77 -38z"/>
<path d="M0 15 c0 -8 7 -15 16 -15 14 0 14 3 4 15 -16 19 -20 19 -20 0z"/>
<path d="M2230 15 c-10 -12 -10 -15 4 -15 9 0 16 7 16 15 0 8 -2 15 -4 15 -2
0 -9 -7 -16 -15z"/>
</g>
</svg>
