<?xml version="1.0" standalone="no"?>
<!DOCTYPE svg PUBLIC "-//W3C//DTD SVG 20010904//EN"
 "http://www.w3.org/TR/2001/REC-SVG-20010904/DTD/svg10.dtd">
<svg version="1.0" xmlns="http://www.w3.org/2000/svg"
 width="225.000000pt" height="225.000000pt" viewBox="0 0 225.000000 225.000000"
 preserveAspectRatio="xMidYMid meet">

<g transform="translate(0.000000,225.000000) scale(0.100000,-0.100000)"
fill="#FFA500" stroke="none">
<path d="M1309 1708 c-68 -39 -151 -87 -184 -106 -33 -19 -93 -53 -132 -75
-40 -22 -73 -45 -73 -52 0 -14 37 -199 95 -480 78 -373 73 -330 39 -366 -34
-37 -97 -68 -137 -69 -45 0 -92 25 -133 71 -112 127 -168 174 -234 197 -36 12
-82 22 -102 22 l-38 0 0 -45 0 -45 38 0 c58 0 131 -41 191 -106 30 -32 70 -76
89 -97 54 -59 105 -81 187 -81 133 0 104 -27 759 717 l60 69 -18 31 c-10 18
-29 50 -41 72 -12 22 -38 67 -57 100 -19 33 -67 115 -106 183 -38 68 -72 125
-74 127 -2 3 -60 -28 -129 -67z"/>
</g>
</svg>
